<svg xmlns="http://www.w3.org/2000/svg" xmlns:xlink="http://www.w3.org/1999/xlink" viewBox="0 0 208.26 163.3"><defs><style>.cls-1{isolation:isolate;}.cls-2{fill:#50bfee;}.cls-3{fill:#ef4136;}.cls-4{fill:#283560;}.cls-5{fill:#414042;opacity:0.3;}.cls-13,.cls-5{mix-blend-mode:multiply;}.cls-6{fill:#d8a381;}.cls-7{fill:#a27963;}.cls-8{fill:#231f20;}.cls-9{fill:#fff;}.cls-10{fill:#1b75bc;}.cls-11{fill:#cd8965;}.cls-12{fill:#9c1421;}.cls-13{opacity:0.5;fill:url(#linear-gradient);}</style><linearGradient id="linear-gradient" x1="24.44" y1="100.13" x2="91.92" y2="100.13" gradientUnits="userSpaceOnUse"><stop offset="0" stop-color="#130c0e" stop-opacity="0"/><stop offset="1" stop-color="#130c0e" stop-opacity="0.51"/></linearGradient></defs><title>Celebration</title><g class="cls-1"><g id="Layer_1" data-name="Layer 1"><path class="cls-2" d="M28.46,5.91C-2.44,27.3,28.27,50.53,17.06,61s-32,46.72,0,68.64,134.48,22.78,146.75,10.07S202.23,99.09,208.1,61,58.54-14.9,28.46,5.91Z"/><polygon class="cls-3" points="120.8 139.29 120.8 149.51 120.7 149.51 120.7 156.34 103.18 156.34 103.18 149.51 81.02 149.51 81.02 156.34 63.5 156.34 63.5 139.29 120.8 139.29"/><polygon class="cls-4" points="121.51 102.62 121.51 142.63 61.2 142.63 61.2 102.62 90.65 98.34 121.51 102.62"/><path class="cls-5" d="M68.73,121.57c-.43,3.65-7.53,9.78-7.53,9.78V108.86c1.32-3.15,2.87-5.06,4.33-5C68.42,104.05,69.85,112,68.73,121.57Z"/><path class="cls-5" d="M113.85,121.57c.43,3.65,7.53,9.78,7.53,9.78V108.86c-1.32-3.15-2.87-5.06-4.33-5C114.16,104.05,112.73,112,113.85,121.57Z"/><path class="cls-6" d="M56.8,106.21l-5.93-.56-2.67-.24-8.53-.8-3.53-1.36a4.51,4.51,0,0,0-4.71.93l-.06,0a2.88,2.88,0,0,1-.52.4,3.66,3.66,0,0,1-1.28.6h0l-3.25.89a3.09,3.09,0,0,0-1.83,3.08l.44,6a3,3,0,0,0,2.81,2.75L39,118.5l9.21-.63,2.13-.16,7.13-.48Z"/><polygon class="cls-5" points="50.87 105.65 48.2 105.41 48.18 117.87 50.3 117.72 50.87 105.65"/><path class="cls-4" d="M71.19,106.77s-3.52,9.75-4.69,9.89S50,120.47,50,120.47l.51-16.67,15-.08Z"/><path class="cls-7" d="M30.85,104.64a4,4,0,0,1-1.28.59h0s5.4.64,5.5.48S32,104.94,30.85,104.64Z"/><path class="cls-5" d="M124.22,78.54l.52,19.91-.26,2.92s-2.1,19.22-13.39,26.14c-5.17,3.16-14.1,4.25-16.87,4.49a16,16,0,0,1-2.3,0l-.66,0-.67,0a15.89,15.89,0,0,1-2.29,0c-2.78-.24-11.71-1.33-16.87-4.49C60.13,120.59,58,101.37,58,101.37l-.25-2.92L56,78.54,54.8,65.41v0L58,58.58l1.3-2.78,1-2,.29,10.38.39,14.42L61,80.83,61.44,98l5.72,3.15,6.49,3.56h35.22l6.48-3.56L121.08,98l.48-17.18.06-2.28.4-14.42.29-10.38,1,2,1.29,2.78.84,6.81Z"/><path class="cls-8" d="M81.66,155.82v6.9a.57.57,0,0,1-.56.58H62.63a.58.58,0,0,1-.58-.58v-6.9a1.33,1.33,0,0,1,1.33-1.33h2.53v-.6a2.43,2.43,0,0,1,2.43-2.43h7a2.43,2.43,0,0,1,2.43,2.43v.6h2.53A1.32,1.32,0,0,1,81.66,155.82Z"/><path class="cls-6" d="M156.49,110.22v10.17a3,3,0,0,1-2.73,1.4L142.5,121l-9.07-1.72-2.1-.4-7-1.33,1.94-10.86,5.95.15,2.68.07,8.56.21,3.67-.93a4.33,4.33,0,0,1,1.38-.12v1.3l4,1.58v-.52a4.08,4.08,0,0,0,.91.51h0Z"/><polygon class="cls-5" points="132.2 106.87 134.88 106.95 133.43 119.31 131.34 118.91 132.2 106.87"/><path class="cls-4" d="M111.89,105.58s2.35,10.1,3.49,10.38,16,5.73,16,5.73l1.46-16.61-14.86-1.85Z"/><path class="cls-9" d="M61.73,159.7H82a0,0,0,0,1,0,0v3.39a.2.2,0,0,1-.2.2H61.93a.2.2,0,0,1-.2-.2V159.7a0,0,0,0,1,0,0Z"/><path class="cls-8" d="M121.7,155.82v6.9a.58.58,0,0,1-.57.58H102.66a.57.57,0,0,1-.57-.58v-6.9a1.32,1.32,0,0,1,1.33-1.33H106v-.6a2.43,2.43,0,0,1,2.43-2.43h7a2.43,2.43,0,0,1,2.43,2.43v.6h2.53A1.33,1.33,0,0,1,121.7,155.82Z"/><path class="cls-9" d="M101.76,159.7H122a0,0,0,0,1,0,0v3.4a.2.2,0,0,1-.2.2H102a.2.2,0,0,1-.2-.2v-3.4A0,0,0,0,1,101.76,159.7Z"/><polygon class="cls-5" points="120.8 147.35 63.5 145.94 63.5 142.63 120.8 142.63 120.8 147.35"/><path class="cls-8" d="M127.12,74.26l.56,19.91-.27,2.92s-2.28,19.22-14.54,26.14c-5.6,3.16-15.29,4.25-18.3,4.49a18.79,18.79,0,0,1-2.49,0l-.72,0-.73,0a18.61,18.61,0,0,1-2.48,0c-3-.24-12.7-1.33-18.31-4.49-12.25-6.92-14.53-26.14-14.53-26.14L55,94.17l-2-19.91L51.8,61.13v0l3.43-6.81,1.4-2.78,1-2.05L58,59.85l.43,14.42.07,2.28L59,93.73l6.21,3.15,7,3.56h38.22l7-3.56,6.21-3.15.53-17.18.07-2.28.42-14.42.32-10.38,1,2.05,1.41,2.78.91,6.81Z"/><path class="cls-6" d="M132.1,79.58l-1.75,10.93a5,5,0,0,1-1.48,2.88,3.89,3.89,0,0,1-1.19.78,3.57,3.57,0,0,1-1.59.36,4,4,0,0,1-2.38-.8l-.29,9.72c-.28,9.82-7.43,17.61-16.12,17.61H75.42c-8.7,0-15.84-7.79-16.13-17.61L59,93.73a4,4,0,0,1-2.38.8A3.57,3.57,0,0,1,55,94.17a4,4,0,0,1-1.19-.78,5,5,0,0,1-1.48-2.88L50.61,79.58a5,5,0,0,1,2.47-5.32,4,4,0,0,1,1.79-.43h1.75a3.92,3.92,0,0,1,1.79.44L57.3,60l-.67-8.48-.15-2.05-.17-2.08h70.1l-.17,2.08-.16,2.05L125.41,60l-1.1,14.27a3.84,3.84,0,0,1,1.78-.44h1.75a4,4,0,0,1,1.79.43A5,5,0,0,1,132.1,79.58Z"/><ellipse class="cls-10" cx="74.86" cy="80.16" rx="3.6" ry="4.07"/><rect class="cls-8" x="65.25" y="67.81" width="19.22" height="6.5" rx="3.25"/><polygon class="cls-8" points="57.66 49.47 60.73 49.47 60.73 76.55 58.45 76.55 58.41 74.27 55.23 68.65 55.23 57.41 55.23 49.47 57.66 49.47"/><polygon class="cls-8" points="125.39 97.63 122.45 111.9 115.9 119.56 101.83 123.92 80.89 123.92 66.81 119.56 60.26 111.9 57.32 97.63 59 93.73 62.65 93.8 65.21 96.88 71.94 104.92 83.76 101.58 84.14 101.56 91.36 101.21 98.58 101.56 98.95 101.58 110.77 104.92 117.5 96.88 120.06 93.8 123.71 93.73 125.39 97.63"/><ellipse class="cls-10" cx="107.85" cy="80.16" rx="3.3" ry="3.73"/><rect class="cls-8" x="98.24" y="67.81" width="19.22" height="6.5" rx="3.25" transform="translate(215.71 142.13) rotate(-180)"/><polygon class="cls-8" points="125.05 49.47 121.98 49.47 121.98 76.55 124.26 76.55 124.3 74.27 127.48 68.65 127.48 57.41 127.48 49.47 125.05 49.47"/><path class="cls-8" d="M128.21,69.38,60.74,59.28,58,59.85,57.3,60l-2.07.42-3.43.71h0l0-6.79C51.31,44.92,59.09,37,67.41,37H115.3c8.32,0,16.1,8,15.61,17.38Z"/><path class="cls-5" d="M99,101.91a2.26,2.26,0,0,1-.34,1.12A4.2,4.2,0,0,1,95,104.81H88.85A4.2,4.2,0,0,1,85.2,103a2.26,2.26,0,0,1-.34-1.12,1.55,1.55,0,0,1,0-.43l2.2-14c.24-1.5,2-2.64,4-2.64a4.94,4.94,0,0,1,.87.07,4.83,4.83,0,0,1,.86-.07c2,0,3.74,1.14,4,2.64l2.2,14A1.55,1.55,0,0,1,99,101.91Z"/><path class="cls-11" d="M98.94,100.4a2.12,2.12,0,0,1-.36,1.12,4.63,4.63,0,0,1-3.92,1.78h-6.6a4.64,4.64,0,0,1-3.93-1.78,2.21,2.21,0,0,1-.36-1.12,1.64,1.64,0,0,1,0-.44l2.37-14c.25-1.49,2.09-2.63,4.27-2.63a5.74,5.74,0,0,1,.93.07,5.57,5.57,0,0,1,.93-.07c2.18,0,4,1.14,4.27,2.63l2.36,14A1.64,1.64,0,0,1,98.94,100.4Z"/><path class="cls-3" d="M101.46,107.68a8.72,8.72,0,0,1-.07,1.14c0,.28-.06.55-.11.81a3.81,3.81,0,0,1-.15.65,2.13,2.13,0,0,1-.1.4,8.69,8.69,0,0,1-8.12,6.66,6.7,6.7,0,0,1-1.55-.17,6.84,6.84,0,0,1-1.56.17,8.69,8.69,0,0,1-8.12-6.66,2.13,2.13,0,0,1-.1-.4c-.06-.22-.11-.43-.15-.65s-.08-.53-.11-.81a8.72,8.72,0,0,1-.07-1.14Z"/><path class="cls-12" d="M101.46,107.68a8.72,8.72,0,0,1-.07,1.14c0,.28-.06.55-.11.81a3.81,3.81,0,0,1-.15.65,2.13,2.13,0,0,1-.1.4H81.68a2.13,2.13,0,0,1-.1-.4c-.06-.22-.11-.43-.15-.65s-.08-.53-.11-.81a8.72,8.72,0,0,1-.07-1.14Z"/><path class="cls-13" d="M81,149.5v5.2a1.34,1.34,0,0,1,.64,1.11v3.88H82v3.4a.2.2,0,0,1-.2.2H61.94a.2.2,0,0,1-.21-.2v-3.4h.33v-3.88a1.33,1.33,0,0,1,1.32-1.33h.13V142.62H61.2V117.83C56.36,119,50,120.47,50,120.47l.08-2.74-1.89.13-9.21.63-11.27-.58a3,3,0,0,1-2.81-2.75l-.44-6a3.11,3.11,0,0,1,1.83-3.08l3.26-.88h0l.08,0a4.73,4.73,0,0,0,.66-.25,4.37,4.37,0,0,0,.55-.32,3.28,3.28,0,0,0,.52-.4l.05-.06a4.52,4.52,0,0,1,4.72-.92l3.52,1.35,8.53.81,2.25.2,0-1.81,6.25,0a48,48,0,0,1-1.44-6.68L55,94.17a4.61,4.61,0,0,1-1.19-.78,5.08,5.08,0,0,1-1.47-2.88L50.61,79.58a5.07,5.07,0,0,1,2.47-5.32L51.8,61.12h0l0-6.78C51.32,44.92,59.09,37,67.42,37h24.5V149.5Z"/></g></g></svg>