<?xml version="1.0" encoding="utf-8"?>
<!-- Generator: Adobe Illustrator 23.0.3, SVG Export Plug-In . SVG Version: 6.00 Build 0)  -->
<svg version="1.1" id="Layer_1" xmlns="http://www.w3.org/2000/svg" xmlns:xlink="http://www.w3.org/1999/xlink" x="0px" y="0px"
	 viewBox="0 0 208.3 163.3" style="enable-background:new 0 0 208.3 163.3;" xml:space="preserve">
<style type="text/css">
	.st0{fill:#50BFEE;}
	.st1{fill:#D1D3D4;}
	.st2{fill:#FBB040;}
	.st3{fill:#F7941D;}
	.st4{fill:#E6E7E8;}
	.st5{fill:#FFFFFF;}
	.st6{fill:#BCBEC0;}
	.st7{opacity:0.5;}
	.st8{fill:#58595B;}
	.st9{opacity:0.5;fill:url(#SVGID_1_);}
	.st10{fill:#3C2415;}
	.st11{fill:#D8A381;}
	.st12{fill:#414042;}
	.st13{fill:#8FD6EE;}
	.st14{fill:#3589A5;}
	.st15{fill:#44A3C4;}
	.st16{fill:#939598;}
	.st17{fill:url(#SVGID_2_);}
	.st18{fill:url(#SVGID_3_);}
	.st19{fill:url(#SVGID_4_);}
	.st20{fill:#6D6E71;}
	.st21{fill:url(#SVGID_5_);}
	.st22{fill:url(#SVGID_6_);}
	.st23{fill:url(#SVGID_7_);}
	.st24{fill:url(#SVGID_8_);}
	.st25{fill:url(#SVGID_9_);}
	.st26{fill:url(#SVGID_10_);}
	.st27{opacity:0.4;fill:url(#SVGID_11_);}
	.st28{fill:url(#SVGID_12_);}
	.st29{fill:url(#SVGID_13_);}
	.st30{fill:url(#SVGID_14_);}
	.st31{fill:url(#SVGID_15_);}
	.st32{fill:url(#SVGID_16_);}
	.st33{fill:url(#SVGID_17_);}
	.st34{fill:url(#SVGID_18_);}
	.st35{fill:url(#SVGID_19_);}
	.st36{fill:url(#SVGID_20_);}
	.st37{opacity:0.4;fill:url(#SVGID_21_);}
	.st38{opacity:0.4;fill:url(#SVGID_22_);}
	.st39{opacity:0.4;fill:url(#SVGID_23_);}
	.st40{opacity:0.4;fill:url(#SVGID_24_);}
	.st41{opacity:0.4;fill:url(#SVGID_25_);}
	.st42{fill:none;stroke:#FFFFFF;stroke-miterlimit:10;}
	.st43{fill:none;stroke:#000000;stroke-miterlimit:10;}
	.st44{fill:#1B75BC;}
	.st45{fill:#CD8965;}
	.st46{opacity:0.3;fill:#414042;}
	.st47{fill:#283560;}
	.st48{fill:#A27963;}
	.st49{fill:#EF4136;}
	.st50{fill:#9C1421;}
	.st51{opacity:0.3;fill:url(#SVGID_26_);}
	.st52{opacity:0.3;fill:url(#SVGID_27_);}
	.st53{opacity:0.3;fill:url(#SVGID_28_);}
	.st54{opacity:0.3;fill:url(#SVGID_29_);}
	.st55{opacity:0.3;fill:url(#SVGID_30_);}
	.st56{opacity:0.5;fill:url(#SVGID_31_);}
	.st57{opacity:0.5;fill:url(#SVGID_32_);}
	.st58{opacity:0.5;fill:url(#SVGID_33_);}
	.st59{opacity:0.5;fill:url(#SVGID_34_);}
	.st60{fill:#808285;}
	.st61{fill:url(#SVGID_35_);}
	.st62{opacity:0.5;fill:url(#SVGID_36_);}
	.st63{opacity:0.5;fill:url(#SVGID_37_);}
	.st64{fill:url(#SVGID_38_);}
	.st65{fill:#A7A9AC;}
	.st66{opacity:0.5;fill:url(#SVGID_39_);}
	.st67{opacity:0.5;fill:url(#SVGID_40_);}
	.st68{fill:url(#SVGID_41_);}
	.st69{opacity:0.5;fill:url(#SVGID_42_);}
</style>
<path class="st0" d="M28.5,5.9C-2.4,27.3,28.3,50.5,17.1,61s-32,46.7,0,68.6s134.5,22.8,146.7,10.1s38.4-40.7,44.3-78.7
	S58.5-14.9,28.5,5.9z"/>
<g>
	
		<rect x="156.6" y="96.2" transform="matrix(-0.9989 4.712563e-02 -4.712563e-02 -0.9989 346.4783 220.328)" class="st1" width="28" height="36"/>
	
		<rect x="158.6" y="99.2" transform="matrix(-0.9989 4.712563e-02 -4.712563e-02 -0.9989 346.4076 219.3307)" class="st2" width="24" height="29"/>
	
		<rect x="158.6" y="99.2" transform="matrix(-0.9989 4.712563e-02 -4.712563e-02 -0.9989 346.4076 219.3307)" class="st3" width="24" height="29"/>
	
		<rect x="160.6" y="99.2" transform="matrix(-0.9989 4.712563e-02 -4.712563e-02 -0.9989 347.2636 217.2657)" class="st2" width="21" height="27"/>
	
		<rect x="158" y="97.3" transform="matrix(-0.9989 4.712563e-02 -4.712563e-02 -0.9989 344.5711 193.4029)" class="st4" width="24" height="7"/>
	
		<rect x="160" y="97.2" transform="matrix(-0.9989 4.712563e-02 -4.712563e-02 -0.9989 345.5683 193.3323)" class="st5" width="21" height="7"/>
	<path class="st4" d="M148.3,107.3l0.8,16c0.1,1.6,1.5,2.9,3.1,2.8l5-0.2l-0.2-4l-4,0.2l-0.7-14l4-0.2l-0.2-4l-5,0.2
		C149.5,104.2,148.2,105.6,148.3,107.3z"/>
	
		<rect x="155.1" y="121.9" transform="matrix(-0.9989 4.712563e-02 -4.712563e-02 -0.9989 317.833 240.3971)" class="st6" width="2" height="4"/>
	
		<rect x="154.2" y="104" transform="matrix(-0.9989 4.712563e-02 -4.712563e-02 -0.9989 315.2901 204.497)" class="st6" width="2" height="4"/>
	<g class="st7">
		
			<image style="overflow:visible;" width="329" height="444" xlink:href="A2023DE01B2641C1.png"  transform="matrix(0.24 0 0 0.24 139.6586 60.5103)">
		</image>
	</g>
	<g class="st7">
		
			<image style="overflow:visible;" width="328" height="444" xlink:href="A2023DE01B2641C3.png"  transform="matrix(0.24 0 0 0.24 124.7786 61.2303)">
		</image>
	</g>
	<g class="st7">
		
			<image style="overflow:visible;" width="335" height="331" xlink:href="A2023DE01B2641C6.png"  transform="matrix(0.24 0 0 0.24 130.7787 60.9903)">
		</image>
	</g>
	<g class="st7">
		
			<image style="overflow:visible;" width="335" height="311" xlink:href="A2023DE01B2641C7.png"  transform="matrix(0.24 0 0 0.24 132.2186 92.9103)">
		</image>
	</g>
</g>
<g>
	<g>
		<polygon class="st49" points="120.8,139.3 120.8,149.5 120.7,149.5 120.7,156.3 103.2,156.3 103.2,149.5 81,149.5 81,156.3 
			63.5,156.3 63.5,139.3 		"/>
		<polygon class="st47" points="121.5,102.6 121.5,142.6 61.2,142.6 61.2,102.6 90.6,98.3 		"/>
		<path class="st46" d="M68.7,121.6c-0.4,3.6-7.5,9.8-7.5,9.8v-22.5c1.3-3.2,2.9-5.1,4.3-5C68.4,104.1,69.9,112,68.7,121.6z"/>
		<path class="st46" d="M113.9,121.6c0.4,3.6,7.5,9.8,7.5,9.8v-22.5c-1.3-3.2-2.9-5.1-4.3-5C114.2,104.1,112.7,112,113.9,121.6z"/>
		<g>
			<path class="st11" d="M56.8,106.2l-5.9-0.6l-2.7-0.2l-8.5-0.8l-3.5-1.4c-1.6-0.6-3.5-0.3-4.7,0.9l-0.1,0.1
				c-0.2,0.2-0.3,0.3-0.5,0.4c-0.4,0.3-0.8,0.5-1.3,0.6l0,0l-3.3,0.9c-1.2,0.5-1.9,1.8-1.8,3.1l0.4,6c0.1,1.5,1.3,2.7,2.8,2.7
				l11.3,0.6l9.2-0.6l2.1-0.2l7.1-0.5L56.8,106.2z"/>
			<polygon class="st46" points="50.9,105.7 48.2,105.4 48.2,117.9 50.3,117.7 			"/>
			<path class="st47" d="M71.2,106.8c0,0-3.5,9.7-4.7,9.9S50,120.5,50,120.5l0.5-16.7l15-0.1L71.2,106.8z"/>
			<path class="st48" d="M30.9,104.6c-0.4,0.3-0.8,0.5-1.3,0.6l0,0c0,0,5.4,0.6,5.5,0.5C35.1,105.5,32,104.9,30.9,104.6z"/>
		</g>
		<path class="st46" d="M124.2,78.5l0.5,19.9l-0.3,2.9c0,0-2.1,19.2-13.4,26.1c-5.2,3.2-14.1,4.2-16.9,4.5c-0.8,0.1-1.5,0.1-2.3,0
			l-0.7,0l-0.7,0c-0.8,0-1.5,0-2.3,0c-2.8-0.2-11.7-1.3-16.9-4.5C60.1,120.6,58,101.4,58,101.4l-0.3-2.9L56,78.5l-1.2-13.1v0
			l3.2-6.8l1.3-2.8l0.9-2.1l0.3,10.4l0.4,14.4l0.1,2.3L61.4,98l5.7,3.2l6.5,3.6h35.2l6.5-3.6l5.7-3.2l0.5-17.2l0.1-2.3l0.4-14.4
			l0.3-10.4l0.9,2.1l1.3,2.8l0.8,6.8L124.2,78.5z"/>
		<path d="M81.7,155.8v6.9c0,0.3-0.3,0.6-0.6,0.6H62.6c-0.3,0-0.6-0.3-0.6-0.6v-6.9c0-0.7,0.6-1.3,1.3-1.3h2.5v-0.6
			c0-1.3,1.1-2.4,2.4-2.4h7c1.3,0,2.4,1.1,2.4,2.4v0.6h2.5C81.1,154.5,81.7,155.1,81.7,155.8z"/>
		<g>
			<path class="st11" d="M156.5,110.2v10.2c-0.6,0.9-1.6,1.5-2.7,1.4l-11.3-0.8l-9.1-1.7l-2.1-0.4l-7-1.3l1.9-10.9l6,0.2l2.7,0.1
				l8.6,0.2l3.7-0.9c0.5-0.1,0.9-0.2,1.4-0.1v1.3l4,1.6v-0.5c0.3,0.2,0.6,0.4,0.9,0.5l0,0L156.5,110.2z"/>
			<polygon class="st46" points="132.2,106.9 134.9,106.9 133.4,119.3 131.3,118.9 			"/>
			<path class="st47" d="M111.9,105.6c0,0,2.3,10.1,3.5,10.4c1.1,0.3,16,5.7,16,5.7l1.5-16.6l-14.9-1.9L111.9,105.6z"/>
		</g>
		<path class="st5" d="M81.8,163.3H61.9c-0.1,0-0.2-0.1-0.2-0.2v-3.4H82v3.4C82,163.2,81.9,163.3,81.8,163.3z"/>
		<path d="M121.7,155.8v6.9c0,0.3-0.3,0.6-0.6,0.6h-18.5c-0.3,0-0.6-0.3-0.6-0.6v-6.9c0-0.7,0.6-1.3,1.3-1.3h2.5v-0.6
			c0-1.3,1.1-2.4,2.4-2.4h7c1.3,0,2.4,1.1,2.4,2.4v0.6h2.5C121.1,154.5,121.7,155.1,121.7,155.8z"/>
		<path class="st5" d="M121.8,163.3H102c-0.1,0-0.2-0.1-0.2-0.2v-3.4H122v3.4C122,163.2,121.9,163.3,121.8,163.3z"/>
		<polygon class="st46" points="120.8,147.3 63.5,145.9 63.5,142.6 120.8,142.6 		"/>
		<g>
			<path d="M127.1,74.3l0.6,19.9l-0.3,2.9c0,0-2.3,19.2-14.5,26.1c-5.6,3.2-15.3,4.2-18.3,4.5c-0.8,0.1-1.6,0.1-2.5,0l-0.7,0l-0.7,0
				c-0.8,0-1.7,0-2.5,0c-3-0.2-12.7-1.3-18.3-4.5c-12.3-6.9-14.5-26.1-14.5-26.1L55,94.2l-2-19.9l-1.3-13.1v0l3.4-6.8l1.4-2.8l1-2.1
				L58,59.8l0.4,14.4l0.1,2.3L59,93.7l6.2,3.2l7,3.6h38.2l7-3.6l6.2-3.2l0.5-17.2l0.1-2.3l0.4-14.4l0.3-10.4l1,2.1l1.4,2.8l0.9,6.8
				L127.1,74.3z"/>
			<path class="st11" d="M132.1,79.6l-1.8,10.9c-0.2,1.2-0.7,2.2-1.5,2.9c-0.4,0.3-0.8,0.6-1.2,0.8c-0.5,0.2-1,0.4-1.6,0.4
				c-0.9,0-1.7-0.3-2.4-0.8l-0.3,9.7c-0.3,9.8-7.4,17.6-16.1,17.6H75.4c-8.7,0-15.8-7.8-16.1-17.6L59,93.7c-0.7,0.5-1.5,0.8-2.4,0.8
				c-0.6,0-1.1-0.1-1.6-0.4c-0.4-0.2-0.8-0.5-1.2-0.8c-0.8-0.7-1.3-1.7-1.5-2.9l-1.8-10.9c-0.4-2.3,0.7-4.4,2.5-5.3
				c0.5-0.3,1.1-0.4,1.8-0.4h1.8c0.6,0,1.2,0.2,1.8,0.4L57.3,60l-0.7-8.5l-0.2-2.1l-0.2-2.1h70.1l-0.2,2.1l-0.2,2.1l-0.7,8.5
				l-1.1,14.3c0.5-0.3,1.1-0.4,1.8-0.4h1.8c0.6,0,1.2,0.2,1.8,0.4C131.4,75.2,132.5,77.3,132.1,79.6z"/>
			<ellipse class="st44" cx="74.9" cy="80.2" rx="3.6" ry="4.1"/>
			<path d="M81.2,74.3H68.5c-1.8,0-3.3-1.5-3.3-3.3v0c0-1.8,1.5-3.3,3.3-3.3h12.7c1.8,0,3.3,1.5,3.3,3.3v0
				C84.5,72.9,83,74.3,81.2,74.3z"/>
			<polygon points="57.7,49.5 60.7,49.5 60.7,76.5 58.5,76.5 58.4,74.3 55.2,68.6 55.2,57.4 55.2,49.5 			"/>
			<polygon points="125.4,97.6 122.5,111.9 115.9,119.6 101.8,123.9 80.9,123.9 66.8,119.6 60.3,111.9 57.3,97.6 59,93.7 62.6,93.8 
				65.2,96.9 71.9,104.9 83.8,101.6 84.1,101.6 91.4,101.2 98.6,101.6 99,101.6 110.8,104.9 117.5,96.9 120.1,93.8 123.7,93.7 			
				"/>
			<ellipse class="st44" cx="107.9" cy="80.2" rx="3.3" ry="3.7"/>
			<path d="M101.5,74.3h12.7c1.8,0,3.3-1.5,3.3-3.3v0c0-1.8-1.5-3.3-3.3-3.3h-12.7c-1.8,0-3.3,1.5-3.3,3.3v0
				C98.2,72.9,99.7,74.3,101.5,74.3z"/>
			<polygon points="125,49.5 122,49.5 122,76.5 124.3,76.5 124.3,74.3 127.5,68.6 127.5,57.4 127.5,49.5 			"/>
			<path d="M128.2,69.4L60.7,59.3L58,59.8L57.3,60l-2.1,0.4l-3.4,0.7l0,0l0-6.8C51.3,44.9,59.1,37,67.4,37h47.9
				c8.3,0,16.1,8,15.6,17.4L128.2,69.4z"/>
			<path class="st46" d="M99,101.9c0,0.4-0.1,0.8-0.3,1.1c-0.6,1-2,1.8-3.6,1.8h-6.1c-1.6,0-3-0.7-3.6-1.8c-0.2-0.3-0.3-0.7-0.3-1.1
				c0-0.1,0-0.3,0-0.4l2.2-14c0.2-1.5,1.9-2.6,4-2.6c0.3,0,0.6,0,0.9,0.1c0.3,0,0.6-0.1,0.9-0.1c2,0,3.7,1.1,4,2.6l2.2,14
				C99,101.6,99,101.8,99,101.9z"/>
			<path class="st45" d="M98.9,100.4c0,0.4-0.1,0.8-0.4,1.1c-0.7,1-2.1,1.8-3.9,1.8h-6.6c-1.8,0-3.3-0.7-3.9-1.8
				c-0.2-0.3-0.4-0.7-0.4-1.1c0-0.1,0-0.3,0-0.4l2.4-14c0.3-1.5,2.1-2.6,4.3-2.6c0.3,0,0.6,0,0.9,0.1c0.3,0,0.6-0.1,0.9-0.1
				c2.2,0,4,1.1,4.3,2.6l2.4,14C99,100.1,99,100.3,98.9,100.4z"/>
			<path class="st49" d="M101.5,107.7c0,0.4,0,0.8-0.1,1.1c0,0.3-0.1,0.5-0.1,0.8c0,0.2-0.1,0.4-0.1,0.6c0,0.1,0,0.3-0.1,0.4
				c-1.1,3.9-4.3,6.7-8.1,6.7c-0.5,0-1,0-1.6-0.2c-0.5,0.1-1,0.2-1.6,0.2c-3.8,0-7-2.8-8.1-6.7c0-0.1-0.1-0.3-0.1-0.4
				c-0.1-0.2-0.1-0.4-0.1-0.6c0-0.3-0.1-0.5-0.1-0.8c0-0.4-0.1-0.8-0.1-1.1H101.5z"/>
			<path class="st50" d="M101.5,107.7c0,0.4,0,0.8-0.1,1.1c0,0.3-0.1,0.5-0.1,0.8c0,0.2-0.1,0.4-0.1,0.6c0,0.1,0,0.3-0.1,0.4H81.7
				c0-0.1-0.1-0.3-0.1-0.4c-0.1-0.2-0.1-0.4-0.1-0.6c0-0.3-0.1-0.5-0.1-0.8c0-0.4-0.1-0.8-0.1-1.1H101.5z"/>
		</g>
	</g>
	<linearGradient id="SVGID_1_" gradientUnits="userSpaceOnUse" x1="24.4376" y1="100.1295" x2="91.9167" y2="100.1295">
		<stop  offset="0" style="stop-color:#000000;stop-opacity:0"/>
		<stop  offset="1" style="stop-color:#000000;stop-opacity:0.51"/>
	</linearGradient>
	<path class="st9" d="M81,149.5v5.2c0.4,0.2,0.6,0.6,0.6,1.1v3.9H82v3.4c0,0.1-0.1,0.2-0.2,0.2H61.9c-0.1,0-0.2-0.1-0.2-0.2v-3.4
		h0.3v-3.9c0-0.7,0.6-1.3,1.3-1.3h0.1v-11.9h-2.3v-24.8c-4.8,1.1-11.2,2.6-11.2,2.6l0.1-2.7l-1.9,0.1l-9.2,0.6l-11.3-0.6
		c-1.5-0.1-2.7-1.2-2.8-2.8l-0.4-6c-0.1-1.3,0.6-2.5,1.8-3.1l3.3-0.9l0,0c0,0,0.1,0,0.1,0c0.2-0.1,0.5-0.1,0.7-0.2
		c0.2-0.1,0.4-0.2,0.5-0.3c0.2-0.1,0.4-0.2,0.5-0.4l0-0.1c1.3-1.2,3.1-1.5,4.7-0.9l3.5,1.4l8.5,0.8l2.2,0.2l0-1.8l6.2,0
		c-1.1-3.9-1.4-6.7-1.4-6.7L55,94.2c-0.4-0.2-0.8-0.5-1.2-0.8c-0.8-0.7-1.3-1.7-1.5-2.9l-1.8-10.9c-0.4-2.3,0.7-4.4,2.5-5.3
		l-1.3-13.1l0,0l0-6.8C51.3,44.9,59.1,37,67.4,37h24.5v112.5H81z"/>
</g>
</svg>
