<?xml version="1.0" encoding="utf-8"?>
<!-- Generator: Adobe Illustrator 23.0.3, SVG Export Plug-In . SVG Version: 6.00 Build 0)  -->
<svg version="1.1" id="Layer_1" xmlns="http://www.w3.org/2000/svg" xmlns:xlink="http://www.w3.org/1999/xlink" x="0px" y="0px"
	 viewBox="0 0 36 36" style="enable-background:new 0 0 36 36;" xml:space="preserve">
<style type="text/css">
	.st0{fill:#50BFEE;}
	.st1{fill:#D1D3D4;}
	.st2{fill:#FBB040;}
	.st3{fill:#F7941D;}
	.st4{fill:#E6E7E8;}
	.st5{fill:#FFFFFF;}
	.st6{fill:#BCBEC0;}
	.st7{opacity:0.5;}
	.st8{fill:#58595B;}
	.st9{opacity:0.5;fill:url(#SVGID_1_);}
	.st10{fill:#3C2415;}
	.st11{fill:#D8A381;}
	.st12{fill:#414042;}
	.st13{fill:#8FD6EE;}
	.st14{fill:#3589A5;}
	.st15{fill:#44A3C4;}
	.st16{fill:#939598;}
	.st17{fill:url(#SVGID_2_);}
	.st18{fill:url(#SVGID_3_);}
	.st19{fill:url(#SVGID_4_);}
	.st20{fill:#6D6E71;}
	.st21{fill:url(#SVGID_5_);}
	.st22{fill:url(#SVGID_6_);}
	.st23{fill:url(#SVGID_7_);}
	.st24{fill:url(#SVGID_8_);}
	.st25{fill:url(#SVGID_9_);}
	.st26{fill:url(#SVGID_10_);}
	.st27{opacity:0.4;fill:url(#SVGID_11_);}
	.st28{fill:url(#SVGID_12_);}
	.st29{fill:url(#SVGID_13_);}
	.st30{fill:url(#SVGID_14_);}
	.st31{fill:url(#SVGID_15_);}
	.st32{fill:url(#SVGID_16_);}
	.st33{fill:url(#SVGID_17_);}
	.st34{fill:url(#SVGID_18_);}
	.st35{fill:url(#SVGID_19_);}
	.st36{fill:url(#SVGID_20_);}
	.st37{opacity:0.4;fill:url(#SVGID_21_);}
	.st38{opacity:0.4;fill:url(#SVGID_22_);}
	.st39{opacity:0.4;fill:url(#SVGID_23_);}
	.st40{opacity:0.4;fill:url(#SVGID_24_);}
	.st41{opacity:0.4;fill:url(#SVGID_25_);}
	.st42{fill:none;stroke:#FFFFFF;stroke-miterlimit:10;}
	.st43{fill:none;stroke:#FFFFFF;stroke-linecap:round;stroke-linejoin:round;stroke-miterlimit:10;}
	.st44{fill:none;stroke:#000000;stroke-miterlimit:10;}
	.st45{fill:#1B75BC;}
	.st46{fill:#CD8965;}
	.st47{opacity:0.3;fill:#414042;}
	.st48{fill:#283560;}
	.st49{fill:#A27963;}
	.st50{fill:#EF4136;}
	.st51{fill:#9C1421;}
	.st52{opacity:0.3;fill:url(#SVGID_26_);}
	.st53{opacity:0.3;fill:url(#SVGID_27_);}
	.st54{opacity:0.3;fill:url(#SVGID_28_);}
	.st55{opacity:0.3;fill:url(#SVGID_29_);}
	.st56{opacity:0.3;fill:url(#SVGID_30_);}
	.st57{opacity:0.5;fill:url(#SVGID_31_);}
	.st58{opacity:0.5;fill:url(#SVGID_32_);}
	.st59{opacity:0.5;fill:url(#SVGID_33_);}
	.st60{fill:#808285;}
	.st61{fill:url(#SVGID_34_);}
	.st62{opacity:0.5;fill:url(#SVGID_35_);}
	.st63{opacity:0.5;fill:url(#SVGID_36_);}
	.st64{fill:url(#SVGID_37_);}
	.st65{fill:#A7A9AC;}
	.st66{opacity:0.5;fill:url(#SVGID_38_);}
	.st67{opacity:0.5;fill:url(#SVGID_39_);}
	.st68{fill:url(#SVGID_40_);}
	.st69{opacity:0.5;fill:url(#SVGID_41_);}
</style>
<g>
	<g>
		<path class="st11" d="M9.9,22.5l-0.4,1.6l-0.2,0.7l-0.6,2.4l0,1.1c0,0.5-0.2,1-0.7,1.2l0,0c-0.1,0-0.1,0.1-0.2,0.1
			c-0.1,0.1-0.2,0.2-0.3,0.3l0,0l-0.5,0.8c-0.3,0.3-0.7,0.4-1,0.2l-1.6-0.7c-0.4-0.2-0.6-0.6-0.5-1l0.9-3.1l1-2.4l0.2-0.6L7,21.3
			L9.9,22.5z"/>
		<polygon class="st50" points="26.4,29.2 26.4,32.1 26.4,32.1 26.4,34 21.4,34 21.4,32.1 15.1,32.1 15.1,34 10.1,34 10.1,29.2 		
			"/>
		<polygon class="st47" points="9.5,24.2 9.3,24.9 5.9,23.8 6.2,23.2 		"/>
		<polygon class="st48" points="26.6,18.7 26.6,30.1 9.4,30.1 9.4,18.7 17.8,17.5 		"/>
		<path class="st47" d="M11.6,26.2c-0.1,1.5-0.3,2.8-0.6,3.9H9.4v-9c0.4-1.3,0.8-2,1.2-2C11.5,19.1,11.9,22.3,11.6,26.2z"/>
		<path class="st48" d="M11,18.6c0,0-3,0.1-3.1,0.4c-0.1,0.3-2.5,4.1-2.5,4.1l4.5,1.4l1.4-4L11,18.6z"/>
		<path class="st49" d="M7.9,29.7c-0.1,0.1-0.2,0.2-0.3,0.3l0,0c0,0,0.3-1.5,0.4-1.5C8,28.4,7.9,29.3,7.9,29.7z"/>
		<path class="st47" d="M24.5,26.2c0.1,1.5,0.3,2.8,0.6,3.9h1.6v-9c-0.4-1.3-0.8-2-1.2-2C24.5,19.1,24.1,22.3,24.5,26.2z"/>
		<path class="st47" d="M27.4,11.8l0.1,5.7l-0.1,0.8c0,0-0.6,5.5-3.8,7.4c-1.5,0.9-4,1.2-4.8,1.3c-0.2,0-0.4,0-0.7,0l-0.2,0l-0.2,0
			c-0.2,0-0.4,0-0.7,0c-0.8-0.1-3.3-0.4-4.8-1.3c-3.2-2-3.8-7.4-3.8-7.4l-0.1-0.8L8,11.8L7.6,8.1v0l0.9-1.9l0.4-0.8l0.3-0.6l0.1,3
			l0.1,4.1l0,0.6l0.1,4.9l1.6,0.9l1.8,1h10l1.8-1l1.6-0.9l0.1-4.9l0-0.6l0.1-4.1l0.1-3l0.3,0.6l0.4,0.8l0.2,1.9L27.4,11.8z"/>
		<path d="M15.3,33.9v2c0,0.1-0.1,0.2-0.2,0.2H9.9c-0.1,0-0.2-0.1-0.2-0.2v-2c0-0.2,0.2-0.4,0.4-0.4h0.7v-0.2c0-0.4,0.3-0.7,0.7-0.7
			h2c0.4,0,0.7,0.3,0.7,0.7v0.2h0.7C15.1,33.5,15.3,33.7,15.3,33.9z"/>
		<g>
			<path class="st11" d="M26.1,22.5l0.4,1.6l0.2,0.7l0.6,2.4l0,1.1c0,0.5,0.2,1,0.7,1.2l0,0c0.1,0,0.1,0.1,0.2,0.1
				c0.1,0.1,0.2,0.2,0.3,0.3l0,0l0.5,0.8c0.3,0.3,0.7,0.4,1,0.2l1.6-0.7c0.4-0.2,0.6-0.6,0.5-1l-0.9-3.1l-1-2.4l-0.2-0.6L29,21.3
				L26.1,22.5z"/>
			<polygon class="st47" points="26.5,24.2 26.7,24.9 30.1,23.8 29.8,23.2 			"/>
			<path class="st48" d="M25,18.6c0,0,3,0.1,3.1,0.4c0.1,0.3,2.5,4.1,2.5,4.1l-4.5,1.4l-1.4-4L25,18.6z"/>
			<path class="st49" d="M28.1,29.7c0.1,0.1,0.2,0.2,0.3,0.3l0,0c0,0-0.3-1.5-0.4-1.5C28,28.4,28.1,29.3,28.1,29.7z"/>
		</g>
		<path class="st5" d="M15.2,36H9.8c-0.1,0-0.2-0.1-0.2-0.2V35h5.8v0.8C15.4,35.9,15.3,36,15.2,36z"/>
		<path d="M26.7,33.9v2c0,0.1-0.1,0.2-0.2,0.2h-5.3c-0.1,0-0.2-0.1-0.2-0.2v-2c0-0.2,0.2-0.4,0.4-0.4h0.7v-0.2
			c0-0.4,0.3-0.7,0.7-0.7h2c0.4,0,0.7,0.3,0.7,0.7v0.2h0.7C26.5,33.5,26.7,33.7,26.7,33.9z"/>
		<path class="st5" d="M26.6,36h-5.4c-0.1,0-0.2-0.1-0.2-0.2V35h5.8v0.8C26.8,35.9,26.7,36,26.6,36z"/>
		<polygon class="st47" points="26.4,31.5 10.1,31.1 10.1,30.1 26.4,30.1 		"/>
		<g>
			<path d="M28.2,10.6l0.2,5.7l-0.1,0.8c0,0-0.6,5.5-4.1,7.4c-1.6,0.9-4.4,1.2-5.2,1.3c-0.2,0-0.5,0-0.7,0l-0.2,0l-0.2,0
				c-0.2,0-0.5,0-0.7,0c-0.9-0.1-3.6-0.4-5.2-1.3c-3.5-2-4.1-7.4-4.1-7.4l-0.1-0.8l-0.6-5.7L6.8,6.9v0l1-1.9l0.4-0.8l0.3-0.6l0.1,3
				l0.1,4.1l0,0.6l0.1,4.9l1.8,0.9l2,1h10.9l2-1l1.8-0.9l0.1-4.9l0-0.6l0.1-4.1l0.1-3l0.3,0.6l0.4,0.8l0.3,1.9L28.2,10.6z"/>
			<path class="st11" d="M29.7,12.1l-0.5,3.1c-0.1,0.3-0.2,0.6-0.4,0.8c-0.1,0.1-0.2,0.2-0.3,0.2c-0.1,0.1-0.3,0.1-0.5,0.1
				c-0.2,0-0.5-0.1-0.7-0.2l-0.1,2.8c-0.1,2.8-2.1,5-4.6,5h-9.1c-2.5,0-4.5-2.2-4.6-5l-0.1-2.8c-0.2,0.1-0.4,0.2-0.7,0.2
				c-0.2,0-0.3,0-0.5-0.1c-0.1-0.1-0.2-0.1-0.3-0.2c-0.2-0.2-0.4-0.5-0.4-0.8l-0.5-3.1c-0.1-0.7,0.2-1.3,0.7-1.5
				c0.2-0.1,0.3-0.1,0.5-0.1h0.5c0.2,0,0.4,0,0.5,0.1L8.3,6.6L8.1,4.1l0-0.6l0-0.6h20l0,0.6l0,0.6l-0.2,2.4l-0.3,4.1
				c0.2-0.1,0.3-0.1,0.5-0.1h0.5c0.2,0,0.4,0,0.5,0.1C29.4,10.9,29.8,11.5,29.7,12.1z"/>
			<ellipse class="st45" cx="13.9" cy="12.3" rx="0.8" ry="0.9"/>
			<path d="M15.2,12.2h-3.6c-0.5,0-0.9-0.4-0.9-0.9v0c0-0.5,0.4-0.9,0.9-0.9h3.6c0.5,0,0.9,0.4,0.9,0.9v0
				C16.1,11.8,15.7,12.2,15.2,12.2z"/>
			<polygon points="8.4,3.6 9.3,3.6 9.3,11.3 8.7,11.3 8.7,10.6 7.7,9 7.7,5.8 7.7,3.6 			"/>
			<polygon points="27.7,17.3 26.9,21.4 25,23.5 21,24.8 15.1,24.8 11,23.5 9.2,21.4 8.3,17.3 8.8,16.2 9.9,16.2 10.6,17.1 
				12.5,19.4 15.9,18.4 16,18.4 18,18.3 20.1,18.4 20.2,18.4 23.6,19.4 25.5,17.1 26.2,16.2 27.3,16.2 			"/>
			<ellipse class="st45" cx="22.3" cy="12.3" rx="0.7" ry="0.8"/>
			<path d="M20.9,12.2h3.6c0.5,0,0.9-0.4,0.9-0.9v0c0-0.5-0.4-0.9-0.9-0.9h-3.6c-0.5,0-0.9,0.4-0.9,0.9v0
				C20,11.8,20.4,12.2,20.9,12.2z"/>
			<polygon points="27.6,3.6 26.8,3.6 26.8,11.3 27.4,11.3 27.4,10.6 28.3,9 28.3,5.8 28.3,3.6 			"/>
			<path d="M28.5,9.2L9.3,6.4L8.5,6.5l-0.2,0L7.7,6.7l-1,0.2l0,0l0-1.9c-0.1-2.7,2.1-5,4.4-5h13.6c2.4,0,4.6,2.3,4.4,5L28.5,9.2z"/>
			<path class="st47" d="M20.2,18.5c0,0.1,0,0.2-0.1,0.3c-0.2,0.3-0.6,0.5-1,0.5h-1.7c-0.5,0-0.9-0.2-1-0.5
				c-0.1-0.1-0.1-0.2-0.1-0.3c0,0,0-0.1,0-0.1l0.6-4c0.1-0.4,0.6-0.8,1.1-0.8c0.1,0,0.2,0,0.2,0c0.1,0,0.2,0,0.2,0
				c0.6,0,1.1,0.3,1.1,0.8l0.6,4C20.2,18.4,20.2,18.5,20.2,18.5z"/>
			<path class="st46" d="M20.2,18.1c0,0.1,0,0.2-0.1,0.3c-0.2,0.3-0.6,0.5-1.1,0.5h-1.9c-0.5,0-0.9-0.2-1.1-0.5
				c-0.1-0.1-0.1-0.2-0.1-0.3c0,0,0-0.1,0-0.1l0.7-4c0.1-0.4,0.6-0.8,1.2-0.8c0.1,0,0.2,0,0.3,0c0.1,0,0.2,0,0.3,0
				c0.6,0,1.1,0.3,1.2,0.8l0.7,4C20.2,18,20.2,18,20.2,18.1z"/>
			<path class="st50" d="M19.8,19.9c0,0.1,0,0.1,0,0.2c0,0,0,0.1,0,0.1c0,0,0,0.1,0,0.1c0,0,0,0,0,0.1c-0.2,0.7-0.7,1.1-1.4,1.1
				c-0.1,0-0.2,0-0.3,0c-0.1,0-0.2,0-0.3,0c-0.6,0-1.2-0.5-1.4-1.1c0,0,0,0,0-0.1c0,0,0-0.1,0-0.1c0,0,0-0.1,0-0.1
				c0-0.1,0-0.1,0-0.2H19.8z"/>
			<path class="st51" d="M19.8,19.9c0,0.1,0,0.1,0,0.2c0,0,0,0.1,0,0.1c0,0,0,0.1,0,0.1c0,0,0,0,0,0.1h-3.3c0,0,0,0,0-0.1
				c0,0,0-0.1,0-0.1c0,0,0-0.1,0-0.1c0-0.1,0-0.1,0-0.2H19.8z"/>
		</g>
	</g>
	<linearGradient id="SVGID_1_" gradientUnits="userSpaceOnUse" x1="6.3877" y1="18.001" x2="16.9605" y2="18.001">
		<stop  offset="0" style="stop-color:#000000;stop-opacity:0"/>
		<stop  offset="1" style="stop-color:#000000;stop-opacity:0.51"/>
	</linearGradient>
	<path class="st9" d="M15.1,32.1v1.5c0.1,0.1,0.2,0.2,0.2,0.3V35h0.1v0.3c0,0.1,0,0.2-0.1,0.4v0.2c0,0.1-0.1,0.2-0.2,0.2H9.9
		c-0.1,0-0.2-0.1-0.2-0.2v-0.2c0-0.1-0.1-0.2-0.1-0.3V35h0.1v-1.1c0-0.2,0.2-0.4,0.4-0.4h0v-3.4H9.5v-5.8h0l-0.1,0.6l-0.6,2.4l0,1.1
		c0,0.5-0.2,1-0.7,1.2l0,0c-0.1,0-0.1,0.1-0.2,0.1c-0.1,0.1-0.2,0.2-0.3,0.3c0,0,0,0,0,0v0l-0.5,0.8c-0.3,0.3-0.7,0.4-1,0.2
		l-1.6-0.7c-0.4-0.2-0.6-0.6-0.5-1l0.9-3.1l1-2.4l0.2-0.5l-0.7-0.2c0,0,2.4-3.8,2.5-4.1c0,0,0.1-0.1,0.2-0.1c-0.3-1-0.3-1.7-0.3-1.7
		l-0.1-0.8c-0.1,0-0.2-0.1-0.3-0.2c-0.2-0.2-0.4-0.5-0.4-0.8l-0.5-3.1c-0.1-0.7,0.2-1.3,0.7-1.5L6.8,6.9l0,0l0-1.9
		c-0.1-2.7,2.1-5,4.5-5H18v32.1H15.1z"/>
</g>
</svg>
