<svg id="Layer_1" data-name="Layer 1" xmlns="http://www.w3.org/2000/svg" xmlns:xlink="http://www.w3.org/1999/xlink" viewBox="0 0 36 36"><defs><style>.cls-1{fill:#939598;}.cls-2{fill:url(#linear-gradient);}.cls-3{fill:url(#linear-gradient-2);}.cls-4{fill:url(#linear-gradient-3);}.cls-5{fill:#6d6e71;}.cls-6{fill:#d1d3d4;}</style><linearGradient id="linear-gradient" x1="1.6" y1="18" x2="34.4" y2="18" gradientUnits="userSpaceOnUse"><stop offset="0" stop-color="#6d6e71"/><stop offset="0.26" stop-color="#d1d3d4"/><stop offset="0.51" stop-color="#808285"/><stop offset="0.77" stop-color="#d1d3d4"/><stop offset="1" stop-color="#58595b"/></linearGradient><linearGradient id="linear-gradient-2" x1="0" y1="14" x2="36" y2="14" xlink:href="#linear-gradient"/><linearGradient id="linear-gradient-3" x1="0" y1="25.2" x2="36" y2="25.2" xlink:href="#linear-gradient"/></defs><title>Keg</title><path class="cls-1" d="M32.38,0H3.62a2,2,0,0,0-2,2V34a2,2,0,0,0,2,2H32.38a2,2,0,0,0,2-2V2A2,2,0,0,0,32.38,0ZM24.9,7.3a2.43,2.43,0,0,1-1.7.7H12.8a2.39,2.39,0,0,1-2.4-2.4,2.39,2.39,0,0,1,2.4-2.4H23.2a2.39,2.39,0,0,1,2.4,2.4A2.43,2.43,0,0,1,24.9,7.3Z"/><path class="cls-2" d="M32.38,0H3.62a2,2,0,0,0-2,2V34a2,2,0,0,0,2,2H32.38a2,2,0,0,0,2-2V2A2,2,0,0,0,32.38,0ZM25.56,6A2.37,2.37,0,0,1,23.2,8H12.8a2.38,2.38,0,0,1-2.36-2,1.75,1.75,0,0,1,0-.4,2.39,2.39,0,0,1,2.4-2.4H23.2a2.39,2.39,0,0,1,2.4,2.4A1.75,1.75,0,0,1,25.56,6Z"/><rect class="cls-3" y="12" width="36" height="4" rx="2"/><rect class="cls-4" y="23.2" width="36" height="4" rx="2"/><path class="cls-5" d="M34.4,27.16V28a2.58,2.58,0,0,1-.4,0H2a2.58,2.58,0,0,1-.4,0v-.8a2.58,2.58,0,0,0,.4,0H34A2.58,2.58,0,0,0,34.4,27.16Z"/><path class="cls-6" d="M34.4,22.36v.8a2.58,2.58,0,0,1-.4,0H2a2.58,2.58,0,0,1-.4,0v-.8a2.58,2.58,0,0,0,.4,0H34A2.58,2.58,0,0,0,34.4,22.36Z"/><path class="cls-5" d="M34.4,16v.8a2.58,2.58,0,0,1-.4,0H2a2.58,2.58,0,0,1-.4,0V16A2.58,2.58,0,0,0,2,16H34A2.58,2.58,0,0,0,34.4,16Z"/><path class="cls-6" d="M34.4,11.16V12a2.58,2.58,0,0,1-.4,0H2a2.58,2.58,0,0,1-.4,0v-.8a2.58,2.58,0,0,0,.4,0H34A2.58,2.58,0,0,0,34.4,11.16Z"/><path class="cls-5" d="M25.6,6.4a2.39,2.39,0,0,1-2.4,2.4H12.8a2.39,2.39,0,0,1-2.4-2.4,1.75,1.75,0,0,1,0-.4A2.38,2.38,0,0,0,12.8,8H23.2a2.37,2.37,0,0,0,2.36-2A1.75,1.75,0,0,1,25.6,6.4Z"/></svg>