<svg id="Layer_1" data-name="Layer 1" xmlns="http://www.w3.org/2000/svg" viewBox="0 0 183.49 84.95"><defs><style>.cls-1{fill:#fff;}.cls-2{fill:#50bfee;}.cls-3{fill:#fbb040;}</style></defs><title>Opening</title><path class="cls-1" d="M34.26,34.2c1.76-.31,3.6-.58,5.43-.88l.14,1.93c-4.55.85-9.34,1.66-12.33,2.21a.63.63,0,0,1-.47.47l-.78-2.54,5.94-.89v-10H26.62v-2h5.57v-3.9H28.55v-.71A12.66,12.66,0,0,1,27.5,19a5.92,5.92,0,0,0-1.59-1.49A32.61,32.61,0,0,0,32.36,8l2.75.45c0,.23-.24.4-.68.4l-.07.14a49.52,49.52,0,0,1,5.77,5.57l-1.39,1.8a41.63,41.63,0,0,0-5.36-5.5,40.07,40.07,0,0,1-3.74,5.77H38.2v2H34.26v3.9h5.06v2H34.26ZM29,33.08a26.11,26.11,0,0,0-1.46-6.45l1.63-.41a26.35,26.35,0,0,1,1.6,6.38Zm10.43-6.32a.81.81,0,0,1-.72.31,50.73,50.73,0,0,1-1.8,5.74l-1.49-.58A51.15,51.15,0,0,0,37.08,26Zm18.36-1.05H50.39c1.32,5.36,3.9,9.85,7.74,12a7.52,7.52,0,0,0-1.57,1.83c-3.7-2.37-6.21-6.65-7.74-11.91C47.64,32,45,36.27,39.18,39.53a7.92,7.92,0,0,0-1.56-1.73c6.25-3.26,8.59-7.71,9.44-12.09H39.59V23.57h7.77a44.06,44.06,0,0,0,.21-4.65V16.71H43.63A22.05,22.05,0,0,1,41.49,22a17,17,0,0,0-1.8-1c1.6-2.61,2.68-7.13,3.29-11.58L45.7,10c-.07.24-.31.38-.71.38-.21,1.39-.48,2.78-.78,4.17h3.36V8l2.88.17c0,.24-.2.41-.68.48v5.9h6.66v2.14H49.77v2.21a43.64,43.64,0,0,1-.2,4.65h8.18Z"/><path class="cls-1" d="M80.74,34.84a66.75,66.75,0,0,0,7.13-.51c0,.75.07,1.7.14,2.45-2.24.24-5.64.37-7,.37H72.49c-5.12,0-7.6-2.24-7.6-7.09V10.26l3.32.21c-.06.34-.3.54-.91.61V22.15a111.76,111.76,0,0,0,16.84-6.73l1.73,2.35a.89.89,0,0,1-.41.1,1.32,1.32,0,0,1-.47-.1A132,132,0,0,1,67.3,24.45v5.67c0,3.43,1.66,4.72,5.16,4.72ZM83.93,9.28a26.46,26.46,0,0,1,4.21,5l-1.29,1a28.27,28.27,0,0,0-4.14-5Zm4.18-2a27.55,27.55,0,0,1,4.21,5l-1.29,1a29.88,29.88,0,0,0-4.14-4.95Z"/><path class="cls-1" d="M94.19,21.94h28.35v2.41H95.48A1.56,1.56,0,0,1,94.4,25Z"/><path class="cls-1" d="M135.58,14.27c0,.3-.34.51-.78.58-.2,9.13-1,17.45-6.18,23.52a21,21,0,0,0-2-1.29c5.06-5.5,5.67-14,5.77-23.12Zm8.8,19.55c5.67-2.75,9.33-7.7,11.3-13.64a14,14,0,0,0,2.11,1.32,25.33,25.33,0,0,1-13.85,15.35,1.49,1.49,0,0,1-.58.68l-1.77-2.25.38-.5V9.86l3.15.16a.77.77,0,0,1-.74.65Z"/><path class="cls-2" d="M14.1,52.1H10.7V62.55H9.44V52.1H6.05V51H14.1Z"/><path class="cls-2" d="M20.84,62.2a5.94,5.94,0,0,1-2.58.51c-2.41,0-3.85-1.69-3.85-4.16s1.46-4.44,3.68-4.44c2.54,0,3.19,2.33,3.19,3.76,0,.29,0,.5,0,.7H15.64c0,2.28,1.31,3.15,2.8,3.15a5.18,5.18,0,0,0,2.16-.43ZM20,57.63c0-1.12-.45-2.57-2.07-2.57s-2.18,1.44-2.3,2.57Z"/><path class="cls-2" d="M23.49,52.81l1.23-.42v1.92h2.14v1H24.72v4.76c0,1,.32,1.62,1.12,1.62a2.61,2.61,0,0,0,.85-.12l.08,1a3.26,3.26,0,0,1-1.23.19c-2,0-2.05-1.81-2.05-2.69V55.29H22.22v-1h1.27Z"/><path class="cls-2" d="M32.36,55.56a2.91,2.91,0,0,0-1.6-.48,1.24,1.24,0,0,0-1.39,1.22c0,.71.47,1,1.52,1.5C32.22,58.34,33,59,33,60.28c0,1.47-1.12,2.43-2.92,2.43a4.31,4.31,0,0,1-2.17-.56l.35-1a4,4,0,0,0,1.86.56c1.11,0,1.65-.59,1.65-1.34s-.44-1.19-1.53-1.63c-1.39-.56-2.1-1.33-2.1-2.33a2.44,2.44,0,0,1,2.69-2.34,3.66,3.66,0,0,1,1.89.5Z"/><path class="cls-2" d="M41.37,60.35c0,.85.05,1.56.08,2.2H40.31l-.06-1.3h0a3,3,0,0,1-2.63,1.48c-1.24,0-2.71-.71-2.71-3.56V54.31h1.25V59c0,1.6.47,2.72,1.85,2.72a2.19,2.19,0,0,0,2.15-2.24V54.31h1.25Z"/><path class="cls-2" d="M48.66,55.64a2.91,2.91,0,0,1,2.73-1.53c2,0,3.33,1.68,3.33,4.22,0,3-1.83,4.4-3.54,4.4a2.83,2.83,0,0,1-2.66-1.54h-.05l-.07,1.36H47.31c0-.55.06-1.38.06-2V50.45h1.26v5.19Zm0,3.69a2.32,2.32,0,0,0,2.31,2.37c1.6,0,2.49-1.38,2.49-3.33,0-1.72-.84-3.23-2.45-3.23a2.49,2.49,0,0,0-2.35,2.55Z"/><path class="cls-2" d="M55.4,51.66h3.7v.86H55.4Zm2.46,10.89H56.61V54.29h1.25Z"/><path class="cls-2" d="M64.12,55.36c-.13,0-.27,0-.45,0-1.36,0-2.06,1.35-2.06,2.74v4.48H60.36V56.77c0-.88,0-1.68-.06-2.46h1.1l.06,1.58h0a2.46,2.46,0,0,1,2.23-1.77,2.32,2.32,0,0,1,.38.05Z"/><path class="cls-2" d="M72,60.35c0,.85,0,1.56.08,2.2H71l-.06-1.3h0a3,3,0,0,1-2.63,1.48c-1.24,0-2.71-.71-2.71-3.56V54.31H66.8V59c0,1.6.46,2.72,1.84,2.72a2.19,2.19,0,0,0,2.15-2.24V54.31H72Z"/><path class="cls-2" d="M86.3,56.74H77.48v-.91H86.3Zm0,3.31H77.48v-.91H86.3Z"/><path class="cls-2" d="M96.49,56.74H87.67v-.91h8.82Zm0,3.31H87.67v-.91h8.82Z"/><path class="cls-2" d="M106.68,56.74H97.86v-.91h8.82Zm0,3.31H97.86v-.91h8.82Z"/><path class="cls-2" d="M112.18,51h1.25V62.55h-1.25Z"/><path class="cls-2" d="M119.74,55.36c-.14,0-.27,0-.46,0-1.36,0-2,1.35-2,2.74v4.48H116V56.77c0-.88,0-1.68-.06-2.46H117l.06,1.58h0a2.19,2.19,0,0,1,2.62-1.72Z"/><path class="cls-2" d="M128.2,58.36c0,3.07-2,4.37-3.85,4.37-2.12,0-3.75-1.59-3.75-4.25s1.75-4.37,3.85-4.37C126.71,54.11,128.2,55.83,128.2,58.36Zm-3.79-3.27c-1.78,0-2.53,1.76-2.53,3.34,0,1.83,1,3.32,2.5,3.32s2.54-1.49,2.54-3.35C126.92,56.94,126.21,55.09,124.41,55.09Z"/><path class="cls-2" d="M136.7,62.55h-1.25V57.68c0-1.35-.49-2.53-1.93-2.53a2.25,2.25,0,0,0-2.16,2.35v5h-1.25V56.42c0-.84,0-1.46-.06-2.13h1.12l.07,1.35h0a2.93,2.93,0,0,1,2.65-1.53c1,0,2.78.62,2.78,3.42Z"/><path class="cls-2" d="M147.13,56.38a2.94,2.94,0,0,1,2.38,2.9,3,3,0,0,1-.93,2.27,5.22,5.22,0,0,1-3.75,1.09c-1,0-1.66-.08-2.13-.12V51.19a12.24,12.24,0,0,1,2.48-.24,4.45,4.45,0,0,1,3,.85,2.51,2.51,0,0,1,.86,2,2.74,2.74,0,0,1-2,2.54ZM145.3,56c1.53,0,2.51-.87,2.51-2.05v0c0-1.36-1-2-2.57-2A5.31,5.31,0,0,0,144,52V56ZM144,61.56a6.4,6.4,0,0,0,1.22.08c1.59,0,3-.62,3-2.36s-1.5-2.36-3-2.36H144Z"/><path class="cls-2" d="M157.26,62.2a6,6,0,0,1-2.59.51c-2.4,0-3.84-1.69-3.84-4.16s1.46-4.44,3.68-4.44c2.54,0,3.19,2.33,3.19,3.76,0,.29,0,.5,0,.7h-5.61c0,2.28,1.31,3.15,2.8,3.15a5.26,5.26,0,0,0,2.16-.43Zm-.8-4.57c0-1.12-.45-2.57-2.07-2.57s-2.18,1.44-2.3,2.57Z"/><path class="cls-2" d="M165.41,62.2a6,6,0,0,1-2.59.51c-2.4,0-3.84-1.69-3.84-4.16s1.45-4.44,3.68-4.44c2.54,0,3.19,2.33,3.19,3.76,0,.29,0,.5,0,.7h-5.61c0,2.28,1.31,3.15,2.79,3.15a5.28,5.28,0,0,0,2.17-.43Zm-.8-4.57c0-1.12-.46-2.57-2.08-2.57s-2.17,1.44-2.29,2.57Z"/><path class="cls-2" d="M171.48,55.36c-.13,0-.27,0-.45,0-1.36,0-2.06,1.35-2.06,2.74v4.48h-1.25V56.77c0-.88,0-1.68-.06-2.46h1.1l.06,1.58h.05a2.46,2.46,0,0,1,2.24-1.77,2.35,2.35,0,0,1,.37.05Z"/><path class="cls-2" d="M176.81,55.56a3,3,0,0,0-1.61-.48,1.24,1.24,0,0,0-1.39,1.22c0,.71.47,1,1.53,1.5,1.33.54,2.1,1.24,2.1,2.48,0,1.47-1.12,2.43-2.92,2.43a4.3,4.3,0,0,1-2.16-.56l.35-1a4,4,0,0,0,1.86.56c1.1,0,1.65-.59,1.65-1.34s-.44-1.19-1.53-1.63c-1.39-.56-2.1-1.33-2.1-2.33a2.44,2.44,0,0,1,2.69-2.34,3.69,3.69,0,0,1,1.89.5Z"/><path class="cls-3" d="M19.25,72.44A1.62,1.62,0,0,1,20.56,74a1.67,1.67,0,0,1-.51,1.25,2.85,2.85,0,0,1-2.07.6c-.52,0-.92,0-1.17-.06V69.58a6.47,6.47,0,0,1,1.36-.14,2.44,2.44,0,0,1,1.68.47,1.39,1.39,0,0,1,.48,1.1,1.51,1.51,0,0,1-1.08,1.4Zm-1-.24c.84,0,1.39-.48,1.39-1.13h0c0-.75-.55-1.08-1.42-1.08a3.11,3.11,0,0,0-.71.06V72.2Zm-.74,3.1a3.91,3.91,0,0,0,.67,0c.88,0,1.67-.34,1.67-1.3s-.83-1.3-1.67-1.3H17.5Z"/><path class="cls-3" d="M24.6,74.76a6.13,6.13,0,0,0,.07,1.08H24L24,75.26h0a1.57,1.57,0,0,1-1.34.68,1.26,1.26,0,0,1-1.33-1.29c0-1.09.95-1.69,2.64-1.68,0-.38,0-1.25-1-1.25a2,2,0,0,0-1.11.33l-.17-.48A2.63,2.63,0,0,1,23,71.19c1.28,0,1.62.91,1.62,1.81Zm-.69-1.28c-.86,0-1.93.13-1.93,1.09a.76.76,0,0,0,.78.84,1.11,1.11,0,0,0,1.15-1.07Z"/><path class="cls-3" d="M28.06,72a1.63,1.63,0,0,0-.88-.27.69.69,0,0,0-.77.68c0,.39.26.57.84.82.74.3,1.16.69,1.16,1.37s-.62,1.35-1.61,1.35a2.44,2.44,0,0,1-1.19-.31l.19-.54a2.16,2.16,0,0,0,1,.31c.6,0,.91-.32.91-.73s-.25-.66-.85-.9c-.77-.31-1.16-.74-1.16-1.29a1.34,1.34,0,0,1,1.49-1.29,2,2,0,0,1,1,.27Z"/><path class="cls-3" d="M29.81,70.49a.45.45,0,0,1-.45-.47.45.45,0,0,1,.46-.47.47.47,0,0,1,0,.94Zm.35,5.35h-.69V71.29h.69Z"/><path class="cls-3" d="M34.61,75.68a2.91,2.91,0,0,1-1.24.26,2.12,2.12,0,0,1-2.16-2.33,2.27,2.27,0,0,1,2.33-2.42,2.5,2.5,0,0,1,1.09.24l-.17.56a1.81,1.81,0,0,0-.94-.24,1.64,1.64,0,0,0-1.6,1.82,1.61,1.61,0,0,0,1.58,1.8,2.23,2.23,0,0,0,1-.23Z"/><path class="cls-3" d="M38.56,74.76a6.17,6.17,0,0,0,.06,1.08H38l-.07-.58h0a1.59,1.59,0,0,1-1.35.68,1.25,1.25,0,0,1-1.32-1.29c0-1.09,1-1.69,2.63-1.68,0-.38,0-1.25-1-1.25a2,2,0,0,0-1.11.33l-.17-.48a2.63,2.63,0,0,1,1.39-.38c1.28,0,1.62.91,1.62,1.81Zm-.69-1.28c-.86,0-1.94.13-1.94,1.09a.76.76,0,0,0,.79.84,1.11,1.11,0,0,0,1.15-1.07Z"/><path class="cls-3" d="M40.58,75.84h-.69V69.17h.69Z"/><path class="cls-3" d="M42.65,75.84H42V69.17h.69Z"/><path class="cls-3" d="M47.46,71.29l-1.21,3.23a7.55,7.55,0,0,1-1.5,2.86,2.26,2.26,0,0,1-.92.53l-.2-.58a2.6,2.6,0,0,0,1.47-1.64.44.44,0,0,0-.05-.19l-1.61-4.21h.76l1,2.77c.11.31.21.67.29,1h0c.08-.28.19-.62.29-1l.92-2.75Z"/><path class="cls-3" d="M53.6,71.29l-1.21,3.23a7.55,7.55,0,0,1-1.5,2.86,2.26,2.26,0,0,1-.92.53l-.2-.58a2.6,2.6,0,0,0,1.47-1.64.44.44,0,0,0-.05-.19l-1.61-4.21h.76l1,2.77c.11.31.21.67.29,1h0c.08-.28.19-.62.29-1l.92-2.75Z"/><path class="cls-3" d="M58.23,73.53a2.16,2.16,0,0,1-2.13,2.41A2.1,2.1,0,0,1,54,73.6a2.16,2.16,0,0,1,2.13-2.41A2.1,2.1,0,0,1,58.23,73.53Zm-2.1-1.8c-1,0-1.39,1-1.39,1.84s.56,1.83,1.38,1.83,1.4-.82,1.4-1.84C57.52,72.75,57.13,71.73,56.13,71.73Z"/><path class="cls-3" d="M62.84,74.63c0,.47,0,.86,0,1.21h-.62l0-.71h0a1.67,1.67,0,0,1-1.45.81c-.69,0-1.5-.39-1.5-2V71.29h.69v2.57c0,.88.26,1.5,1,1.5a1.2,1.2,0,0,0,1.19-1.24V71.29h.69Z"/><path class="cls-3" d="M66.29,71.88l-.26,0c-.75,0-1.13.75-1.13,1.51v2.47h-.69V72.66c0-.49,0-.93,0-1.37h.61l0,.88h0a1.37,1.37,0,0,1,1.24-1,1.77,1.77,0,0,1,.21,0Z"/><path class="cls-3" d="M72.9,73.53a2.16,2.16,0,0,1-2.13,2.41A2.1,2.1,0,0,1,68.7,73.6a2.16,2.16,0,0,1,2.13-2.41A2.1,2.1,0,0,1,72.9,73.53Zm-2.09-1.8c-1,0-1.4,1-1.4,1.84S70,75.4,70.79,75.4s1.4-.82,1.4-1.84C72.19,72.75,71.8,71.73,70.81,71.73Z"/><path class="cls-3" d="M74.64,75.84H74V69.17h.69Z"/><path class="cls-3" d="M79.69,74.72c0,.36,0,.81,0,1.12h-.62l0-.77h0a1.61,1.61,0,0,1-1.49.87c-1,0-1.87-.91-1.87-2.31s.91-2.44,2-2.44A1.46,1.46,0,0,1,79,71.9h0V69.17h.69ZM79,73.11a1.26,1.26,0,0,0-1.23-1.36c-.86,0-1.37.8-1.37,1.85s.45,1.78,1.35,1.78A1.31,1.31,0,0,0,79,74Z"/><path class="cls-3" d="M85.87,70.27A2.17,2.17,0,0,0,84.75,70c-.89,0-1.22.54-1.22,1,0,.62.38.94,1.23,1.3,1,.43,1.56,1,1.56,1.87s-.74,1.79-2.11,1.79a2.91,2.91,0,0,1-1.52-.41l.2-.57a2.62,2.62,0,0,0,1.36.39c.86,0,1.36-.46,1.36-1.14s-.35-1-1.17-1.35-1.61-.91-1.61-1.79a1.75,1.75,0,0,1,1.94-1.68,2.57,2.57,0,0,1,1.3.3Z"/><path class="cls-3" d="M91.26,73.53a2.15,2.15,0,0,1-2.12,2.41,2.1,2.1,0,0,1-2.07-2.34,2.16,2.16,0,0,1,2.12-2.41A2.1,2.1,0,0,1,91.26,73.53Zm-2.09-1.8c-1,0-1.4,1-1.4,1.84s.56,1.83,1.38,1.83,1.4-.82,1.4-1.84C90.55,72.75,90.16,71.73,89.17,71.73Z"/><path class="cls-3" d="M95.84,75.84H95L93.42,73.6l-.41.47v1.77h-.7V69.17H93v4.24h0l.39-.5,1.36-1.62h.84L93.9,73.17Z"/><path class="cls-3" d="M100.32,73.53a2.16,2.16,0,0,1-2.13,2.41,2.1,2.1,0,0,1-2.07-2.34,2.16,2.16,0,0,1,2.13-2.41A2.1,2.1,0,0,1,100.32,73.53Zm-2.09-1.8c-1,0-1.4,1-1.4,1.84s.56,1.83,1.38,1.83,1.4-.82,1.4-1.84C99.61,72.75,99.22,71.73,98.23,71.73Z"/><path class="cls-3" d="M102.08,72a1.61,1.61,0,0,1,1.51-.84c1.08,0,1.84.92,1.84,2.32,0,1.66-1,2.43-2,2.43a1.54,1.54,0,0,1-1.47-.85h0l0,.75h-.6c0-.3,0-.76,0-1.12V69.17h.7V72Zm0,2a1.28,1.28,0,0,0,1.27,1.31c.89,0,1.38-.76,1.38-1.84s-.47-1.79-1.35-1.79a1.38,1.38,0,0,0-1.3,1.41Z"/><path class="cls-3" d="M109.45,74.76a6.13,6.13,0,0,0,.07,1.08h-.64l-.06-.58h0a1.57,1.57,0,0,1-1.34.68,1.26,1.26,0,0,1-1.33-1.29c0-1.09.95-1.69,2.64-1.68,0-.38,0-1.25-1-1.25a2,2,0,0,0-1.11.33l-.17-.48a2.63,2.63,0,0,1,1.39-.38c1.29,0,1.62.91,1.62,1.81Zm-.69-1.28c-.85,0-1.93.13-1.93,1.09a.76.76,0,0,0,.78.84,1.11,1.11,0,0,0,1.15-1.07Z"/><path class="cls-3" d="M114.42,75.84h-.69V73.16c0-.75-.27-1.4-1.06-1.4a1.24,1.24,0,0,0-1.19,1.3v2.78h-.7V72.46c0-.46,0-.81,0-1.17h.62l0,.74h0a1.62,1.62,0,0,1,1.46-.84c.56,0,1.53.34,1.53,1.88Z"/><path class="cls-3" d="M120.69,74.76a7.32,7.32,0,0,0,.06,1.08h-.63l-.07-.58h0a1.59,1.59,0,0,1-1.35.68,1.26,1.26,0,0,1-1.32-1.29c0-1.09,1-1.69,2.63-1.68,0-.38,0-1.25-1-1.25a2,2,0,0,0-1.11.33l-.17-.48a2.63,2.63,0,0,1,1.39-.38c1.28,0,1.62.91,1.62,1.81ZM120,73.48c-.86,0-1.93.13-1.93,1.09a.75.75,0,0,0,.78.84A1.11,1.11,0,0,0,120,74.34Z"/><path class="cls-3" d="M122.71,75.84H122V69.17h.69Z"/><path class="cls-3" d="M124.78,75.84h-.69V69.17h.69Z"/><path class="cls-3" d="M128.81,72a1.61,1.61,0,0,1,1.51-.84c1.08,0,1.84.92,1.84,2.32,0,1.66-1,2.43-2,2.43a1.53,1.53,0,0,1-1.46-.85h0l0,.75h-.6c0-.3,0-.76,0-1.12V69.17h.69V72Zm0,2a1.29,1.29,0,0,0,1.28,1.31c.89,0,1.38-.76,1.38-1.84s-.47-1.79-1.35-1.79a1.39,1.39,0,0,0-1.31,1.41Z"/><path class="cls-3" d="M135.28,71.88l-.25,0c-.75,0-1.14.75-1.14,1.51v2.47h-.69V72.66c0-.49,0-.93,0-1.37h.6l0,.88h0a1.37,1.37,0,0,1,1.24-1,1.77,1.77,0,0,1,.21,0Z"/><path class="cls-3" d="M139.31,75.65a3.24,3.24,0,0,1-1.43.29,2.07,2.07,0,0,1-2.12-2.3c0-1.43.8-2.45,2-2.45a1.85,1.85,0,0,1,1.76,2.07c0,.16,0,.28,0,.39h-3.09c0,1.26.72,1.73,1.54,1.73a2.79,2.79,0,0,0,1.19-.23Zm-.45-2.52c0-.62-.25-1.42-1.14-1.42s-1.2.8-1.27,1.42Z"/><path class="cls-3" d="M146.42,71.29,145,75.84h-.62l-.72-2.28c-.16-.52-.29-1-.4-1.51h0a11.09,11.09,0,0,1-.42,1.51L142,75.84h-.62l-1.35-4.55h.72l.63,2.38c.13.51.26,1,.35,1.45h0c.1-.45.25-1,.4-1.44l.76-2.39h.6l.73,2.35c.16.53.29,1,.4,1.48h0c.09-.45.21-.93.36-1.47l.67-2.36Z"/><path class="cls-3" d="M150.48,75.65a3.24,3.24,0,0,1-1.43.29,2.07,2.07,0,0,1-2.12-2.3c0-1.43.8-2.45,2-2.45a1.85,1.85,0,0,1,1.76,2.07c0,.16,0,.28,0,.39h-3.09c0,1.26.72,1.73,1.54,1.73a2.79,2.79,0,0,0,1.19-.23ZM150,73.13c0-.62-.26-1.42-1.15-1.42s-1.2.8-1.27,1.42Z"/><path class="cls-3" d="M155.43,74.72c0,.36,0,.81,0,1.12h-.62l0-.77h0a1.61,1.61,0,0,1-1.48.87c-1.06,0-1.87-.91-1.87-2.31s.9-2.44,2-2.44a1.46,1.46,0,0,1,1.33.71h0V69.17h.7Zm-.7-1.61a1.25,1.25,0,0,0-1.22-1.36c-.86,0-1.37.8-1.37,1.85s.45,1.78,1.34,1.78A1.31,1.31,0,0,0,154.73,74Z"/><path class="cls-3" d="M162.3,74.63c0,.47,0,.86,0,1.21h-.63l0-.71h0a1.67,1.67,0,0,1-1.46.81c-.68,0-1.49-.39-1.49-2V71.29h.69v2.57c0,.88.26,1.5,1,1.5a1.21,1.21,0,0,0,1.19-1.24V71.29h.69Z"/><path class="cls-3" d="M164.32,72.06a1.67,1.67,0,0,1,1.55-.87c1.08,0,1.85.92,1.85,2.32,0,1.67-1,2.43-2,2.43a1.55,1.55,0,0,1-1.37-.72h0V77.7h-.69V72.76c0-.6,0-1.06,0-1.47h.63l0,.77Zm0,2a1.28,1.28,0,0,0,1.28,1.35c.89,0,1.38-.76,1.38-1.85,0-.94-.48-1.78-1.36-1.78a1.4,1.4,0,0,0-1.3,1.41Z"/></svg>